<svg height="512" viewBox="0 0 58 58" width="512" xmlns="http://www.w3.org/2000/svg"><g id="023---Sign-Form" fill="none"><path id="Shape" d="m58 6v48c0 2.209139-1.790861 4-4 4h-50c-2.209139 0-4-1.790861-4-4v-48z" fill="#ecf0f1"/><path id="Shape" d="m58 6v48c0 2.209139-1.790861 4-4 4h-50c-2.209139 0-4-1.790861-4-4v-48z" fill="#b0d3f0"/><path id="Shape" d="m58 4v4h-58v-4c0-2.209139 1.790861-4 4-4h50c2.209139 0 4 1.790861 4 4z" fill="#56595e"/><path id="Shape" d="m4.02 5c-.55228475 0-1-.44771525-1-1s.44771525-1 1-1 1 .44771525 1 1-.44771525 1-1 1z" fill="#e64c3c"/><path id="Shape" d="m8.02 5c-.55228475 0-1-.44771525-1-1s.44771525-1 1-1 1 .44771525 1 1-.44771525 1-1 1z" fill="#f0c419"/><path id="Shape" d="m12.02 5c-.5522847 0-1-.44771525-1-1s.4477153-1 1-1 1 .44771525 1 1-.4477153 1-1 1z" fill="#24ae5f"/><path id="Shape" d="m53 6c-.5522847 0-1-.44771525-1-1v-2c0-.55228475.4477153-1 1-1s1 .44771525 1 1v2c0 .55228475-.4477153 1-1 1z" fill="#bdc3c7"/><path id="Shape" d="m52 4h2" fill="#bdc3c7"/><path id="Shape" d="m54 5h-2c-.5522847 0-1-.44771525-1-1s.4477153-1 1-1h2c.5522847 0 1 .44771525 1 1s-.4477153 1-1 1z" fill="#bdc3c7"/><path id="Shape" d="m46 4h2" fill="#bdc3c7"/><path id="Shape" d="m48 5h-2c-.5522847 0-1-.44771525-1-1s.4477153-1 1-1h2c.5522847 0 1 .44771525 1 1s-.4477153 1-1 1z" fill="#bdc3c7"/><rect id="Rectangle-path" fill="#2980ba" height="6" rx="1" width="30" x="5" y="13"/><path id="Shape" d="m35 24h-29c-.55228475 0-1-.4477153-1-1s.44771525-1 1-1h29c.5522847 0 1 .4477153 1 1s-.4477153 1-1 1z" fill="#3b97d3"/><path id="Shape" d="m32 28h-26c-.55228475 0-1-.4477153-1-1s.44771525-1 1-1h26c.5522847 0 1 .4477153 1 1s-.4477153 1-1 1z" fill="#3b97d3"/><path id="Shape" d="m30 32h-24c-.55228475 0-1-.4477153-1-1s.44771525-1 1-1h24c.5522847 0 1 .4477153 1 1s-.4477153 1-1 1z" fill="#3b97d3"/><path id="Shape" d="m28 36h-22c-.55228475 0-1-.4477153-1-1s.44771525-1 1-1h22c.5522847 0 1 .4477153 1 1s-.4477153 1-1 1z" fill="#3b97d3"/><path id="Shape" d="m32.13 40h-26.13c-.55228475 0-1 .4477153-1 1v12c0 .5522847.44771525 1 1 1h46c.5522847 0 1-.4477153 1-1v-12c0-.5522847-.4477153-1-1-1h-10.82" fill="#3b97d3"/><path id="Shape" d="m38.61 44.85-6.3 5.35c-.3120653.2638681-.7532885.3112975-1.1143053.1197825-.3610169-.1915151-.5691723-.5834318-.5256947-.9897825l.87-8.22c4.036.679 3.96.49 7.07 3.74z" fill="#f9eab0"/><path id="Shape" d="m45.84 22.66-10.29 19.44c-1.126-.592-1.911-.637-4.01-.99l10.77-20.33z" fill="#f3d55b"/><path id="Shape" d="m49.37 24.53-10.76 20.32c-.8565865-1.0836416-1.8913619-2.0135868-3.06-2.75l10.29-19.44z" fill="#f0c419"/><path id="Shape" d="m52.65 18.34-1.4 2.65-7.07-3.74 1.4-2.65c.3718732-.7049033 1.0089506-1.2328641 1.7706476-1.4673767.7616969-.2345126 1.5854038-.1563007 2.2893524.2173767l1.76.93c.7049033.3718732 1.2328641 1.0089506 1.4673767 1.7706476.2345126.7616969.1563007 1.5854038-.2173767 2.2893524z" fill="#d75e72"/><path id="Shape" d="m51.25 20.99-1.88 3.54c-4.237-2.245-2.615-1.383-7.06-3.75l1.87-3.53z" fill="#bdc3c7"/><g fill="#9fc9d3"><path id="Shape" d="m10 51h-2c-.55228475 0-1-.4477153-1-1s.44771525-1 1-1h2c.5522847 0 1 .4477153 1 1s-.4477153 1-1 1z"/><path id="Shape" d="m16 51h-2c-.5522847 0-1-.4477153-1-1s.4477153-1 1-1h2c.5522847 0 1 .4477153 1 1s-.4477153 1-1 1z"/><path id="Shape" d="m22 51h-2c-.5522847 0-1-.4477153-1-1s.4477153-1 1-1h2c.5522847 0 1 .4477153 1 1s-.4477153 1-1 1z"/><path id="Shape" d="m27 51h-1c-.5522847 0-1-.4477153-1-1s.4477153-1 1-1h1c.5522847 0 1 .4477153 1 1s-.4477153 1-1 1z"/><path id="Shape" d="m38 51h-1c-.5522847 0-1-.4477153-1-1s.4477153-1 1-1h1c.5522847 0 1 .4477153 1 1s-.4477153 1-1 1z"/><path id="Shape" d="m44 51h-2c-.5522847 0-1-.4477153-1-1s.4477153-1 1-1h2c.5522847 0 1 .4477153 1 1s-.4477153 1-1 1z"/><path id="Shape" d="m50 51h-2c-.5522847 0-1-.4477153-1-1s.4477153-1 1-1h2c.5522847 0 1 .4477153 1 1s-.4477153 1-1 1z"/></g></g></svg>